<svg width="168" height="38" viewBox="0 0 168 38" fill="none" xmlns="http://www.w3.org/2000/svg">
<path d="M26.4624 14.7896C27.0985 15.2413 27.4395 15.8774 27.5373 16.6277C27.6018 17.1182 27.812 17.463 28.1955 17.7672C29.1542 18.5305 29.8198 19.4855 30.0429 20.7227C30.1314 21.2131 29.971 21.7349 30.1443 22.1774C30.3176 22.618 30.7545 22.9517 30.9537 23.3887C31.4754 24.5336 31.5861 25.7376 31.221 26.9581C31.0625 27.491 30.9832 28.0183 31.0164 28.5769C31.197 31.5914 29.0657 33.5328 26.3757 34.1615C26.2577 34.1892 26.1287 34.1689 26.0088 34.1929C25.5092 34.2998 25.1183 34.4713 24.7532 34.9341C23.4442 36.5952 21.6908 37.4305 19.5466 37.2645C18.0605 37.1502 16.8916 36.4201 16.0029 35.2327C15.6858 34.8087 15.6692 34.8032 15.4056 35.1922C14.2735 36.8681 12.64 37.46 10.7151 37.2461C8.99864 37.0543 7.60479 36.1859 6.57046 34.805C6.32709 34.4805 6.11322 34.3256 5.70391 34.2722C4.45018 34.1081 3.29601 33.6545 2.28565 32.8728C1.13148 31.9767 0.497244 30.7838 0.44562 29.3439C0.408745 28.3354 0.314715 27.3601 0.111906 26.3644C-0.160965 25.0167 0.038157 23.6763 1.0098 22.5738C1.26423 22.2861 1.36748 21.969 1.36379 21.5726C1.34904 19.9391 1.9796 18.6153 3.33842 17.6695C3.59838 17.4888 3.75694 17.2804 3.80672 16.9338C3.94685 15.9603 4.43359 15.162 5.18767 14.5259C5.37389 14.3692 5.53245 14.2033 5.5896 13.9359C5.90119 12.4757 6.97977 11.7511 8.27406 11.3418C8.91383 11.139 9.52779 10.9675 10.0735 10.5508C10.7705 10.0199 11.5872 9.7857 12.4704 9.80783C12.7469 9.8152 13.0235 9.81336 13.2982 9.8152C13.4973 10.3093 13.2171 10.702 13.029 11.115C12.9571 11.174 12.876 11.2109 12.7838 11.2275C11.8251 11.1224 10.9696 11.3326 10.2653 12.0332C9.99609 12.3005 9.65869 12.4351 9.27889 12.4665C8.8788 12.4997 8.49715 12.5992 8.15053 12.8112C7.89241 12.9698 7.4997 13.0878 7.48679 13.3883C7.4702 13.7442 7.91269 13.604 8.13394 13.7239C8.3054 13.8179 8.44368 13.9249 8.45843 14.1277C8.47502 14.3747 8.32937 14.5222 8.11919 14.6181C7.95325 14.6955 7.77625 14.7508 7.59741 14.7877C6.23859 15.0772 5.40892 15.9216 5.0328 17.238C4.91664 17.8907 4.6364 18.4235 4.07591 18.8292C3.1227 19.5224 2.66177 20.4922 2.71708 21.6722C2.75027 22.3802 2.38706 22.8835 1.97038 23.3795C1.00611 24.8839 1.19601 26.381 1.9925 27.8818C2.258 28.3833 2.60831 28.7078 3.21673 28.6378C3.79382 29.0231 3.81594 29.4379 3.27204 29.7753C3.05448 29.9099 2.81111 29.9652 2.56406 29.9191C1.73622 29.7606 1.91138 30.2602 2.14184 30.6382C2.72999 31.6043 3.56888 32.2883 4.72858 32.6976C4.40409 32.2551 4.04825 31.9546 3.79935 31.5693C3.5357 31.1618 3.08214 30.6824 3.58732 30.2787C4.11831 29.8528 4.47415 30.4151 4.74886 30.8078C5.0918 31.2945 5.51032 31.691 5.97863 32.0394C6.71796 32.587 7.46282 32.882 8.32015 32.209C8.72946 31.8882 10.3999 32.6349 10.4515 33.1401C10.5068 33.6895 10.0809 33.7983 9.66422 33.8094C9.14429 33.8223 8.62621 33.7393 8.10444 33.8297C7.69882 33.8997 7.6601 34.0306 7.8961 34.3643C8.73315 35.5499 10.8626 36.2099 12.4814 35.7582C13.9656 35.3452 14.823 34.18 14.9133 32.4506C14.9207 32.2975 14.9188 32.1445 14.9188 31.9896C14.9213 31.4082 14.6576 31.238 14.1279 31.4789C13.1138 31.938 12.5626 31.6873 12.5773 30.7709C14.6496 29.921 14.9078 29.5246 14.9096 27.1812C14.9096 25.9219 14.917 24.6645 14.9078 23.4053C14.8985 22.1202 14.3971 21.5523 13.1636 21.3403C12.7783 21.2739 12.1182 21.4233 12.1772 20.813C12.2381 20.1861 12.8557 20.1142 13.4107 20.1548C13.595 20.1677 13.772 20.2212 13.9509 20.2691C14.6023 20.4436 14.9207 20.1812 14.9059 19.4818C14.882 18.4033 14.6349 17.4113 13.7831 16.6646C13.1046 16.0691 12.4409 16.0285 11.6942 16.5393C11.543 16.6425 11.4084 16.7716 11.2406 16.8508C11.0304 16.9504 10.8258 16.9615 10.6414 16.7955C10.4238 16.6001 10.4275 16.3678 10.5381 16.1244C10.7871 15.5768 11.3033 15.3574 11.7919 15.0956C12.0703 14.9463 12.5128 14.843 12.2897 14.3821C12.0979 13.9839 11.7126 13.9765 11.3291 14.0982C11.0323 14.1922 10.7852 14.3784 10.516 14.5241C10.2524 14.666 9.99056 14.7416 9.78775 14.4374C9.60707 14.1664 9.69372 13.9119 9.87994 13.6778C10.2468 13.2169 11.0083 13.1099 11.012 12.2858C11.012 12.0424 11.5061 12.0719 11.7218 12.271C12.487 12.979 13.5674 13.4252 13.6356 14.7121C13.6669 15.3095 14.2957 15.4773 14.6939 15.7907C14.9502 15.9917 14.8949 15.6985 14.9078 15.5824C14.9686 15.068 14.775 14.5443 14.9668 14.0336C15.6028 13.8548 15.9808 14.2807 16.3883 14.6384C16.7109 15.2394 16.3827 15.9382 16.6851 16.5429C16.8086 16.8269 16.8898 17.12 16.8732 17.4335C16.7183 18.2115 16.5118 18.9785 16.545 19.7897C16.5653 20.2912 16.6464 20.5586 17.2309 20.3558C17.6697 20.2027 18.1361 20.2083 18.5952 20.2931C18.881 20.3465 19.1428 20.459 19.1391 20.8075C19.1354 21.1043 18.9031 21.2039 18.6597 21.285C17.2573 21.7558 16.5567 22.7225 16.5579 24.1852C16.5579 25.4407 16.521 26.6982 16.5726 27.9519C16.6151 28.9641 16.8713 29.8989 17.8909 30.4022C17.9776 30.4354 18.0624 30.4686 18.1453 30.5073C18.4809 30.6585 19.0709 30.6142 18.9381 31.1876C18.8109 31.7407 18.2762 31.6043 17.8559 31.5914C17.795 31.5895 17.7342 31.5711 17.6752 31.5564C16.8664 31.3622 16.4915 31.6916 16.5505 32.5446C16.7865 35.878 19.8231 36.5104 22.0024 35.5019C22.4504 35.2954 22.856 35.0096 23.2045 34.6612C23.4092 34.4565 23.7705 34.2629 23.5917 33.9126C23.4387 33.6121 23.0662 33.6398 22.762 33.6305C22.3306 33.6158 21.925 33.8352 21.488 33.7946C21.1967 33.767 20.9275 33.6711 20.8353 33.3706C20.7266 33.0092 21.0086 32.8801 21.276 32.7898C21.6595 32.6589 22.0024 32.4727 22.3048 32.198C22.5223 32.0007 22.845 31.8458 23.0533 32.0671C23.8978 32.9723 24.7348 32.4487 25.5811 32.115C25.8853 32.0671 26.2337 31.8974 26.3481 32.386C26.3388 32.6644 26.455 32.7474 26.7408 32.6995C27.8323 32.5151 29.4473 30.9461 29.569 29.8454C29.6557 29.0581 29.0602 29.9154 28.9127 29.6168C28.5863 29.4084 28.7025 29.1374 28.8057 28.8682C29.6207 27.7601 30.1848 26.5875 30.0429 25.1402C29.9747 24.4396 29.8327 23.8256 29.3238 23.326C28.9606 22.9702 28.7154 22.5479 28.7486 22.0262C28.85 20.4682 28.1438 19.3288 26.9251 18.4457C26.7518 18.3203 26.597 18.1728 26.49 17.981C26.4845 16.7605 25.6511 15.9069 25.1294 14.9131C25.1847 14.2715 25.4778 14.124 26.0088 14.4983C26.1545 14.6015 26.2854 14.725 26.4587 14.7822L26.4624 14.7896Z" fill="#1A3551"/>
<path d="M12.9535 11.1243C12.8816 10.6376 13.1619 10.2467 13.3038 9.81712C14.01 7.82037 14.7106 5.82178 15.4315 3.83056C15.4886 3.67384 15.496 3.46181 15.6804 3.3641C15.9846 3.00088 16.3423 2.97876 16.7479 3.1871C18.6082 4.14215 20.6621 4.37814 22.6755 4.76348C23.0405 4.83354 23.4093 4.89254 23.6102 5.26497C23.8444 6.32511 23.3078 7.30044 23.271 8.33477C23.2581 8.69429 23.1825 9.05935 23.188 9.42625C23.1677 10.1213 23.0165 10.7888 22.7769 11.4377C22.7584 11.4967 22.7308 11.5521 22.7123 11.6111C22.1057 13.6318 22.1057 13.6631 20.0021 13.6133C17.8762 13.5636 15.7947 13.1948 13.7813 12.5053C12.8669 12.1918 12.736 11.9153 12.9517 11.1243H12.9535Z" fill="#D3222D"/>
<path d="M12.9534 11.1241C12.9995 11.9316 13.0327 11.9943 13.7388 12.2211C14.7787 12.5566 15.8499 12.7594 16.9192 12.9844C18.3481 13.2831 19.7788 13.3531 21.2262 13.331C21.8936 13.3218 21.9747 13.1798 22.2015 12.5308C22.3435 12.1252 22.2052 11.644 22.5481 11.3048C22.8855 11.6274 22.7989 12.0349 22.7601 12.4276C22.7306 12.7318 22.6477 13.0323 22.6753 13.3402C22.7011 13.6242 22.7509 13.9265 23.1049 13.9486C23.4202 13.9689 23.481 13.6832 23.5437 13.4472C23.7355 12.7299 23.7244 11.9943 23.7557 11.2587C23.7982 10.2575 23.564 9.23794 23.9272 8.25524C23.9881 8.18517 24.0673 8.14277 24.1558 8.12433C24.4066 8.29027 24.5799 8.2663 24.6997 7.94918C24.8952 7.43478 24.98 6.89273 25.1183 6.36542C25.2104 6.01512 25.1367 5.54681 25.64 5.41406C25.664 6.14049 25.7562 6.8706 25.5312 7.58412C25.5054 7.66893 25.5147 7.76665 25.5183 7.85699C25.5755 9.50344 25.275 11.1333 25.2897 12.7779C25.369 13.3937 25.5091 14.0113 25.1975 14.6087C24.7698 15.6043 23.8129 15.573 23.0054 15.584C20.4278 15.6209 17.9241 15.1858 15.542 14.1349C14.657 13.744 13.6946 13.5209 13.0271 12.7281C12.7155 12.3594 12.4869 11.9925 12.5625 11.4928C12.5994 11.3306 12.6621 11.1868 12.817 11.1019C12.8612 11.1093 12.9073 11.1148 12.9534 11.1185V11.1241Z" fill="#AA2428"/>
<path d="M23.4701 5.2261C22.8931 4.94769 22.2496 5.00116 21.643 4.86473C21.4126 4.8131 21.1858 4.78913 20.9516 4.70432C20.5386 4.55314 20.0943 4.4038 19.6334 4.48861C19.2536 4.55867 18.9106 4.37614 18.599 4.24892C18.245 4.10327 17.8892 3.9484 17.5278 3.81749C17.2255 3.70687 17.0134 3.37316 16.6355 3.45797C16.3589 3.01179 16.0123 3.26069 15.6804 3.36394C15.7413 3.02838 15.7542 2.67254 16.0787 2.4513C16.4345 2.25033 16.6926 2.48817 16.995 2.62276C18.0717 3.10213 19.1558 3.57965 20.3874 3.29941C20.9571 3.49669 20.9811 2.8311 21.3406 2.69282C21.8311 2.52136 22.2478 2.77579 22.6829 2.92144C23.378 3.54093 23.7172 4.28211 23.4683 5.22425L23.4701 5.2261Z" fill="#B3252A"/>
<path d="M23.4699 5.2262C23.4551 5.01971 23.5326 4.79846 23.3353 4.62515C23.2468 4.54771 23.103 4.37625 23.1214 4.35228C23.5676 3.77519 22.8652 3.59451 22.7435 3.22023C22.725 3.16308 22.7342 3.09855 22.7324 3.03771C22.7785 2.94368 22.8467 2.91786 22.9389 2.97133C23.3998 3.38064 24.0175 3.45807 24.5522 3.71066C24.7955 3.82498 25.0149 3.97616 25.2565 4.0831C25.7137 4.28775 25.7616 4.62699 25.6492 5.04552C24.6038 5.40504 24.6167 6.24762 24.6425 7.13999C24.6536 7.50873 24.8158 8.02497 24.2166 8.17984L24.2 8.16694C23.8497 7.82032 23.9437 7.37045 23.9234 6.95008C23.8884 6.24762 24.0156 5.53964 23.8958 5.08239C24.023 6.29187 23.5916 7.66913 23.339 9.06667C23.304 9.26395 23.2081 9.48888 22.9186 9.46307C22.9002 8.35315 23.1731 7.28011 23.3703 6.20153C23.4312 5.87151 23.4312 5.54885 23.468 5.2262H23.4699Z" fill="#AA2428"/>
<path d="M20.4907 3.37875C20.1331 3.69218 19.8215 3.81018 19.2794 3.61659C18.6839 3.40272 17.9925 3.47278 17.4375 3.03766C17.3214 2.94732 17.0817 3.01554 16.8992 3.01C16.7646 3.00632 16.654 2.95838 16.6613 2.80351C16.6835 2.32598 16.3166 2.50114 16.0824 2.45136C16.7056 2.06602 17.3859 2.10105 18.0773 2.16189C18.9531 2.23933 19.8067 2.50667 20.6954 2.47348C20.7286 2.50483 20.7599 2.53801 20.7931 2.56936C20.9148 2.92151 20.8263 3.19622 20.4907 3.37875Z" fill="#C12B35"/>
<path d="M24.2167 8.1799C24.4084 8.12275 24.3937 7.97341 24.3937 7.81669C24.39 7.14373 24.3863 6.47262 24.3937 5.79966C24.4029 5.07139 24.5467 4.93495 25.2639 5.12301C25.4594 5.17464 25.5184 5.04005 25.6474 5.04558C25.6954 5.17095 25.6917 5.29448 25.64 5.41801C25.2842 5.949 25.3155 6.5943 25.1902 7.17876C25.0832 7.6821 24.7624 8.09509 24.7292 8.61133C24.7237 8.70536 24.5652 8.86945 24.4932 8.86023C24.3513 8.84364 24.237 8.70721 24.213 8.54865C24.1964 8.4288 24.2112 8.30527 24.213 8.18175L24.2167 8.1799Z" fill="#CF2730"/>
<path d="M25.1219 14.6144C25.1238 14.0963 25.1311 13.5801 25.1275 13.062C25.1275 12.9292 25.1496 12.826 25.2897 12.7817C25.4556 12.9993 25.6511 13.1929 25.7009 13.4842C25.7894 14.0115 26.0991 14.4171 26.4605 14.7877C26.2743 14.8264 26.136 14.7637 25.9756 14.6513C25.4446 14.277 25.3782 14.3231 25.2952 15.0329C25.2067 15.0532 25.1311 15.0329 25.0666 14.9684C25.0113 14.8393 25.0279 14.7195 25.1201 14.6126L25.1219 14.6144Z" fill="#353442"/>
<path d="M22.939 2.9712C22.8708 2.99333 22.8007 3.01545 22.7325 3.03758C22.2236 3.11133 21.7664 2.71493 21.2483 2.87164C20.9644 2.94171 20.8962 2.63749 20.7026 2.55268L20.6952 2.47524C20.7505 2.41071 20.8021 2.29456 20.8593 2.29087C21.6373 2.24847 22.3711 2.36278 22.939 2.9712Z" fill="#BF9E98"/>
<path d="M12.8171 11.1077C12.7968 11.2331 12.7747 11.3584 12.7544 11.4838C12.4594 12.3043 13.0586 12.6951 13.5472 13.145C13.9731 13.5359 14.5963 13.6189 14.9798 14.0743C15.0388 14.2439 15.2047 14.3619 15.1807 14.5721C15.1605 14.7546 15.177 14.939 15.177 15.1233C15.177 15.6119 15.177 16.0987 15.177 16.7753C14.7198 16.0433 14.1796 15.6709 13.5785 15.3925C13.3628 15.293 13.3186 15.1657 13.3444 14.9703C13.4605 14.148 13.1692 13.5728 12.4041 13.1874C12.0925 13.0307 11.8768 12.6822 11.615 12.4241C11.4509 12.2637 11.2831 12.1494 11.0692 12.3707C10.8996 12.5458 10.9457 12.6859 11.0969 12.839C11.2112 12.9551 11.4159 13.0547 11.0637 13.1837C10.7281 13.3073 10.4276 13.5322 10.1289 13.7368C10.0109 13.818 9.90953 13.9507 9.84869 14.0835C9.78232 14.2291 9.84316 14.3748 9.963 14.4965C10.1345 14.6679 10.2432 14.5223 10.3317 14.419C10.6009 14.1056 10.9678 13.947 11.3292 13.7977C11.8473 13.5838 12.2806 13.7239 12.6198 14.1627C12.9554 14.596 12.8171 14.998 12.2787 15.1934C11.6537 15.4202 11.0324 15.6451 10.671 16.2793C10.5438 16.5006 10.636 16.6241 10.7669 16.7532C10.9033 16.8878 11.0453 16.8361 11.1651 16.7145C11.2518 16.6278 11.3255 16.5282 11.4122 16.4416C12.1497 15.7023 13.1158 15.7078 13.9307 16.3881C14.6571 16.9929 15.0037 17.7967 15.1346 18.6706C15.2416 19.3915 15.177 20.1401 15.1641 20.8776C15.1605 21.0915 14.9742 21.1099 14.8452 20.979C14.4543 20.5863 13.9215 20.5457 13.4366 20.3964C13.0273 20.2692 12.6604 20.4093 12.3506 20.6877C12.2935 20.7375 12.2547 20.861 12.2769 20.9292C12.2972 20.9919 12.4041 21.0527 12.4815 21.0656C12.9259 21.1449 13.372 21.0251 13.833 21.2113C14.7401 21.5764 15.177 22.0852 15.1789 23.0181C15.1807 24.707 15.166 26.394 15.1807 28.0828C15.1881 28.8148 14.9447 29.4712 14.5428 30.0353C14.0874 30.6733 13.3831 30.8871 12.6032 30.8226C12.1423 30.8503 11.8067 30.6511 11.5726 30.2621C11.4841 29.9874 11.6187 29.7108 11.5818 29.4435C11.4656 28.5954 11.7901 28.1437 12.6493 27.9593C13.3186 27.8155 13.7611 27.3398 13.8293 26.5876C13.6246 27.1241 13.2854 27.5371 12.7673 27.7694C12.2123 28.0183 11.626 28.0036 11.0526 27.869C10.0423 27.6311 9.83763 27.2403 10.1216 26.241C10.1603 26.1064 10.3631 25.9073 10.0976 25.8169C10.0312 25.7948 9.93719 26.0547 9.80076 26.1414C8.91761 26.1359 8.60234 25.863 8.29997 24.8471C8.29812 23.4717 8.8033 22.5886 9.72516 22.3562C10.942 22.0483 12.1146 22.8522 12.2713 24.0986C12.3248 24.5281 12.2474 24.954 12.2437 25.4002C12.795 24.2295 12.4317 23.1859 11.1928 22.3175C10.1677 21.6003 9.88925 20.5494 10.4276 19.5261C10.8756 18.6743 11.6279 18.5692 12.4705 18.6338C12.5903 18.643 12.7876 18.7573 12.8281 18.5582C12.8447 18.4771 12.6253 18.3922 12.5221 18.4217C11.0526 18.8458 9.99435 18.0641 8.97477 17.1588C9.12227 17.4851 9.41542 17.5847 9.64588 17.7672C10.2635 18.2577 10.5677 18.8237 10.1713 19.6054C9.95931 20.0258 9.90953 20.472 9.98144 20.9476C10.1455 22.017 9.6256 22.4871 8.57837 22.2346C8.37003 22.1848 8.16722 22.1092 7.95888 22.0539C7.62516 21.9709 7.35045 21.7902 7.0997 21.5634C6.85449 21.3348 6.62587 21.0583 6.29769 20.9642C5.1343 20.6305 4.72315 19.8045 4.73974 18.6762C4.69734 18.1802 4.72683 17.6898 4.85221 17.2067C4.93702 15.9032 6.17969 14.8578 7.21586 14.6218C7.53851 14.5481 7.86854 14.502 8.19119 14.4264C8.32578 14.3951 8.36265 14.2715 8.35528 14.1388C8.34606 14.0042 8.2889 13.8936 8.14694 13.8917C7.81138 13.8843 7.47398 13.9009 7.13842 13.8954C6.88214 13.8917 6.81577 13.7571 6.95036 13.5451C7.43342 12.7873 8.14325 12.3117 9.01717 12.26C9.59057 12.225 9.97407 12.0369 10.3612 11.6442C10.9992 10.9971 11.8123 10.8164 12.6991 10.975C12.7433 10.9823 12.7765 11.0616 12.8152 11.1077H12.8171Z" fill="#50B7D7"/>
<path d="M25.1275 14.9906C25.1829 15.0109 25.24 15.0256 25.2972 15.0349C25.5719 15.3944 25.9738 15.6322 26.2172 16.0249C26.5859 16.6186 26.632 17.2713 26.6136 17.9406C26.7648 18.1508 26.715 18.3702 26.6468 18.5914C26.5859 18.7942 26.5048 18.997 26.4993 19.2109C26.479 20.0719 26.1158 20.6637 25.2382 20.8776C25.0944 20.9126 24.9598 21.0011 24.733 21.274C25.3359 21.0306 25.8005 20.8315 26.302 21.003C26.809 21.1763 27.2792 21.3809 27.3658 21.9986C27.3603 22.4614 27.2663 22.9241 27.3787 23.3851C27.2626 24.4913 27.0708 24.6978 26.1508 24.707C25.6217 24.3807 25.7286 23.6174 24.9893 23.186C25.6346 24.0046 25.8706 24.7457 25.5682 25.5846C25.2861 26.3701 24.8049 26.9914 24.0453 27.3454C22.939 27.8616 21.9434 27.2956 21.3073 25.8317C21.2428 25.8428 21.2244 25.8852 21.2447 25.9644C21.5599 27.196 21.5157 27.3583 20.7653 27.7049C19.7494 28.1751 18.5731 27.963 17.985 27.2163C17.8246 27.0117 17.7877 26.7351 17.5038 26.4254C17.6549 27.2348 18.0532 27.657 18.6432 27.9169C19.4753 28.2845 19.8699 28.9525 19.8268 29.9211C19.5687 31.1176 18.6653 30.7176 17.9149 30.6954C17.3987 30.6622 17.0815 30.3304 16.84 29.9303C16.4897 29.3532 16.2611 28.7337 16.2666 28.0349C16.2795 26.3479 16.2666 24.6628 16.2685 22.9758C16.2703 21.8271 16.9728 21.1191 18.1398 21.0749C18.3537 21.0675 18.5694 21.0749 18.7833 21.0786C18.9677 21.0786 19.0654 20.9919 19.0617 20.8076C19.058 20.6287 18.9621 20.5236 18.7851 20.5089C18.0808 20.4536 17.3894 20.4222 16.746 20.8334C16.2943 21.1228 16.2795 21.0896 16.2611 20.5273C16.2261 19.4579 16.25 18.396 16.6446 17.3782C17.1774 15.7318 18.4994 15.2432 20.0536 16.13C20.273 16.2554 20.3818 16.331 20.2749 15.9899C20.2085 15.7779 20.1827 15.5695 20.4113 15.422C21.4475 15.4331 22.4744 15.6322 23.5124 15.5548C24.6703 16.0434 25.181 16.8989 24.9598 17.9774C24.8215 18.6486 24.32 19.1003 23.7521 18.9085C23.2064 18.7241 23.1621 18.8938 23.1843 19.351C23.1953 19.5889 22.9907 19.7917 22.9667 20.0738C23.293 19.7253 23.6562 19.4377 24.0674 19.2017C25.2105 18.5453 25.4502 17.6935 24.8749 16.5062C24.7145 16.1761 24.4398 15.9143 24.3274 15.5566C24.4749 15.2026 24.7367 15.0091 25.122 14.9888L25.1275 14.9906Z" fill="#F6F3E8"/>
<path d="M26.4293 18.4881C26.4772 18.3001 26.6524 18.1563 26.6137 17.9387C27.034 18.2798 27.5171 18.5342 27.9043 18.9288C28.6215 19.6589 28.9994 20.5107 28.9976 21.5321C28.9976 21.746 29.0068 21.9617 28.9921 22.1756C28.9699 22.4669 29.0437 22.6937 29.2723 22.9039C30.6846 24.1963 30.4707 25.769 29.9821 27.3638C29.7959 27.9741 29.4253 28.4996 28.9847 28.9679C28.9644 28.99 28.9441 29.014 28.9238 29.0361C28.7081 29.2629 28.1864 29.0269 28.2214 29.1559C28.3062 29.4546 28.6436 29.6316 29.0179 29.5597C29.2944 29.3882 29.5194 29.1356 29.8439 29.0435C29.9932 29.4048 29.8752 29.7312 29.7646 30.087C29.2705 31.691 28.0739 32.5152 26.5842 33.0277C26.4459 33.0757 26.2818 33.0628 26.1306 33.0535C26.0476 33.048 25.926 33.0148 25.8965 32.9558C25.8356 32.8378 25.9112 32.7254 26.0108 32.6442C26.0808 32.5889 26.1564 32.541 26.2302 32.4912C26.4809 31.8219 27.1631 31.4772 27.4396 30.8116C26.8755 31.3463 26.3721 31.9547 25.6568 32.2976C25.0778 32.6221 24.5137 32.9743 23.7928 32.8802C23.4369 32.8341 23.1567 32.812 23.0756 32.3585C23.0258 32.0727 22.6718 32.01 22.5446 32.2552C22.233 32.8526 21.7186 32.9982 21.1231 33.0296C21.0143 33.0351 20.9442 33.096 20.9166 33.1771C20.8723 33.3098 20.9534 33.4204 21.0604 33.4831C21.372 33.6638 21.7112 33.6712 22.0117 33.4942C22.7326 33.0701 23.3927 33.5274 24.0767 33.6103C24.1947 33.6251 24.2408 33.7671 24.1689 33.9035C23.8813 34.4585 23.4425 34.8825 22.9502 35.2457C21.6153 36.2303 20.1238 36.4866 18.5658 35.9685C17.4688 35.6034 16.794 34.7535 16.4529 33.638C16.1432 32.6203 16.3257 31.5859 16.252 30.4576C16.6539 30.6254 16.8493 30.9351 17.148 31.0974C17.5684 31.326 17.9869 31.4292 18.4534 31.3997C18.6433 31.3868 18.8295 31.3831 18.8516 31.1324C18.8737 30.8706 18.6967 30.854 18.5013 30.8319C18.3022 30.8116 18.0643 30.9296 17.9168 30.6936C18.1547 30.6825 18.3907 30.6659 18.6285 30.6586C19.3383 30.6364 19.5153 30.4723 19.6241 29.7238C20.3266 30.2732 20.4372 30.7231 20.0205 31.3997C19.8454 31.6873 19.6204 31.9455 19.4822 32.2534C18.9585 33.4131 19.4969 34.3386 20.8391 34.488C20.1145 34.2852 19.4969 33.9496 19.4766 33.1199C19.4545 32.1981 19.9671 31.562 20.7414 31.1379C21.6098 30.6622 22.4985 30.3322 23.5457 30.5147C24.8879 30.7489 25.9296 30.1497 26.7298 29.1024C27.152 28.5493 27.447 27.928 27.6037 27.244C27.211 28.105 26.8441 28.9752 26.0753 29.5873C25.7914 29.8123 25.548 30.1257 25.1147 29.9856C24.5321 29.2352 25.1866 28.9015 25.6383 28.5438C25.9223 28.3207 26.2929 28.2046 26.3445 27.7768C26.3685 27.5703 26.4754 27.3214 26.2634 27.185C26.0403 27.0412 25.8596 27.2219 25.7287 27.3915C25.4282 27.7823 25.0631 28.105 24.6593 28.3742C23.9495 28.8499 22.9963 28.5954 22.5464 27.8321C22.7695 27.6367 23.0498 27.6275 23.3189 27.6201C24.0011 27.6053 24.5929 27.3472 24.9746 26.8052C25.7674 25.6787 27.0008 25.6252 28.1679 25.3892C28.5367 25.946 28.7192 26.571 28.8188 27.2255C28.8372 27.3417 28.7929 27.4947 28.922 27.5519C29.0824 27.6219 29.2059 27.5039 29.3166 27.4007C30.0301 26.7388 29.8457 25.8354 28.9368 25.557C28.7634 25.5035 28.5828 25.4759 28.4389 25.3505C28.3468 24.7937 28.651 24.4415 29.0658 24.1484C29.1893 24.0967 29.3829 24.3198 29.4272 24.1262C29.4659 23.9548 29.2262 23.9769 29.0972 23.9363C28.7782 23.881 28.686 24.117 28.5606 24.3346C28.4076 24.6001 28.2435 24.8766 27.8508 24.7642C27.7199 24.2203 27.412 23.7593 27.1576 23.2744C27.0267 23.0237 26.8146 22.7859 27.0783 22.4909C27.2073 22.3471 27.1207 22.1516 27.1649 21.9857C27.2497 21.8898 27.5263 22.0816 27.4747 21.8161C27.4138 21.5045 27.1889 21.2703 26.9418 21.086C26.5473 20.791 26.3979 20.4517 26.5879 19.9723C26.7943 19.4524 26.7243 18.9491 26.4238 18.4789L26.4293 18.4881Z" fill="#4FB5D5"/>
<path d="M11.6923 30.264C11.9725 30.4889 12.356 30.5442 12.6031 30.8244C12.5404 31.2061 12.8225 31.4826 13.0714 31.5158C13.3922 31.5601 13.7481 31.3849 14.0799 31.2743C14.2164 31.2301 14.3288 31.1121 14.4487 31.0199C14.6644 30.8558 14.8783 30.688 15.094 30.5221C15.2857 30.8263 15.164 31.1618 15.1714 31.4808C15.1898 32.3215 15.1714 33.1365 14.8432 33.9643C14.4007 35.0798 13.6614 35.7029 12.5367 36.0127C11.9965 36.162 11.4674 36.1823 10.9253 36.1805C10.5934 36.1805 10.2616 36.2247 10.0053 35.9094C9.81908 35.6808 9.49643 35.8006 9.23646 35.714C8.31276 35.4061 7.85921 34.5875 7.19915 33.9993C7.00188 33.8242 7.20468 33.7301 7.30978 33.6656C7.40381 33.6085 7.54024 33.5956 7.6564 33.6029C8.29801 33.6398 8.93963 33.3153 9.58124 33.5974C9.60705 33.6085 9.64208 33.5974 9.67343 33.5992C9.96474 33.6306 10.3021 33.6029 10.3574 33.295C10.4146 32.965 10.1178 32.8544 9.80802 32.8636C9.36737 32.8765 9.21803 32.4709 8.947 32.246C8.75525 32.0855 8.62251 32.128 8.48423 32.2865C8.31461 32.4819 8.30907 32.8654 7.96799 32.8562C7.49231 32.8452 7.01294 32.9558 6.54279 32.694C5.71865 32.2349 4.99591 31.6744 4.50548 30.865C4.35798 30.6198 4.20679 30.3967 3.95421 30.2935C3.79933 30.2308 3.58915 30.251 3.56518 30.5276C3.54121 30.7931 3.65921 30.9683 3.80486 31.1821C4.22154 31.7924 4.76175 32.281 5.26325 32.8083C5.30381 32.8507 5.33146 32.9097 5.36465 32.9595C5.2909 32.989 5.21715 33.0314 5.14156 33.0424C4.92031 33.0775 4.74147 32.9337 4.5442 32.8839C3.38818 32.5852 2.66913 31.7279 1.93164 30.8982C1.59424 30.5202 1.81733 29.9597 1.57027 29.5283C1.51496 29.4306 1.68827 29.331 1.81733 29.3919C2.00724 29.4804 2.1787 29.6186 2.37413 29.6887C2.82585 29.8491 3.36975 29.6518 3.53937 29.2481C3.65921 28.9641 3.54306 28.7742 3.19644 28.8056C3.41953 28.2156 3.81408 28.5382 4.16439 28.6212C5.33146 30.3174 6.97975 30.7839 8.95253 30.605C9.8412 30.5239 10.6063 31.0199 11.2369 31.6283C12.3358 32.6866 12.0979 33.8813 10.7004 34.4658C11.9209 34.4492 12.5201 33.3467 11.9228 32.1999C11.7531 31.8735 11.4858 31.608 11.3291 31.2743C11.1134 30.8189 11.1392 30.4409 11.6941 30.2584L11.6923 30.264Z" fill="#195383"/>
<path d="M4.11094 28.8054C3.95791 28.8202 3.83069 28.7852 3.69241 28.6948C3.51542 28.5787 3.29786 28.5049 3.19645 28.811C2.90146 29.0617 2.63043 29.1023 2.33543 28.7852C1.71963 28.1251 1.40067 27.3212 1.17942 26.4713C0.882583 25.3337 1.12964 24.2809 1.72885 23.2946C2.11234 23.0549 2.27644 23.3296 2.44606 23.5969C2.74843 24.9318 3.6076 25.6398 4.94614 25.7799C5.43657 25.8315 5.83666 26.0159 6.09478 26.4399C6.7659 27.5462 7.77257 27.8006 8.95624 27.5499C9.64763 27.4042 10.2266 27.5978 10.7594 28.0108C11.3457 28.4662 11.5338 29.2996 11.2314 30.002C10.9069 30.7561 10.3151 30.6971 9.68266 30.5219C9.08345 30.356 8.46581 30.3173 7.85738 30.3744C5.95466 30.557 4.91664 29.4673 4.15519 27.937C4.07406 27.7748 4.05378 27.5849 3.91735 27.4319C3.94685 27.9039 4.35431 28.3113 4.11094 28.8073V28.8054Z" fill="#50B6D6"/>
<path d="M2.28925 23.654C2.17494 23.4199 2.03113 23.2337 1.72876 23.2927C2.31691 22.7156 2.52525 22.0445 2.4939 21.1982C2.4644 20.4312 2.69856 19.6624 3.37705 19.1388C3.73104 18.864 3.95044 18.4363 4.40584 18.2667C4.61603 18.1874 4.68609 17.9846 4.68793 17.7431C4.68793 17.5605 4.53859 17.3006 4.85571 17.2065C4.9184 17.6951 4.73587 18.2169 5.04746 18.6723C4.81699 18.864 4.70821 19.1277 4.7709 19.4061C4.9479 20.1952 4.73218 20.8313 4.1256 21.3623C3.97625 21.4932 3.78267 21.7605 3.95966 21.9062C4.11822 22.0371 4.2141 21.7255 4.31919 21.6001C4.84465 20.9622 5.49917 20.9014 6.21638 21.1761C6.55746 21.307 6.88196 21.4821 7.26545 21.4305C7.53648 21.5079 7.64526 21.8841 7.99188 21.8195C8.35694 22.404 8.40856 23.018 8.19838 23.6725C8.0601 24.1021 8.014 24.5316 8.54315 24.7621C8.64456 25.5217 9.07968 25.9495 9.82085 26.0214C9.39311 27.4871 7.99004 27.9554 6.87274 27.0133C5.95641 26.2408 5.26317 24.7289 6.21269 23.5877C6.28459 23.501 6.40444 23.3332 6.30856 23.2742C6.15 23.1747 6.05597 23.3664 5.97301 23.4789C5.78679 23.7315 5.72779 24.0357 5.63745 24.3307C5.49548 24.7953 5.42542 25.3632 4.8299 25.4461C4.18828 25.5365 3.63701 25.2691 3.18161 24.7971C2.84421 24.4468 2.78521 23.8808 2.28925 23.6559V23.654Z" fill="#195282"/>
<path d="M25.1276 14.9905C24.8879 15.1712 24.6482 15.3537 24.4104 15.5344C24.1854 15.7926 23.8941 15.8036 23.5862 15.7557C23.1087 15.7575 22.6238 15.6321 22.1573 15.8221C22.0338 15.8718 21.925 15.8847 21.8199 15.8128C21.3645 15.4994 20.8317 15.61 20.3321 15.54C19.4784 15.835 18.7077 15.3593 17.8928 15.2837C17.3102 15.1897 16.7092 15.1362 16.2962 14.6273C15.9569 14.6273 15.6914 14.4485 15.4517 14.242C15.3061 14.1185 15.1678 14.0429 14.9797 14.0724C14.1593 13.8235 13.4439 13.4012 12.8576 12.7707C12.4852 12.3706 12.4704 11.9373 12.7544 11.4819C12.7101 11.9392 12.9129 12.2581 13.2208 12.6011C13.8938 13.3533 14.8156 13.676 15.684 14.0134C16.3773 14.2825 17.0871 14.5794 17.8615 14.6808C18.7981 14.8025 19.707 15.0956 20.6584 15.1989C21.2539 15.2634 21.8476 15.3187 22.445 15.3722C23.094 15.4312 23.6895 15.1657 24.3219 15.1675C24.6998 15.1675 24.7902 14.7066 25.1202 14.6126C25.1202 14.7379 25.1239 14.8633 25.1239 14.9887L25.1276 14.9905Z" fill="#5C2C2F"/>
<path d="M17.9001 15.0125C18.3942 15.2964 18.975 15.1304 19.506 15.324C19.7494 15.4125 20.0241 15.6098 20.332 15.5416C20.3025 15.9196 20.7062 16.0707 20.7837 16.4081C20.8279 16.5962 20.7689 16.6865 20.6565 16.7843C20.544 16.882 20.4223 16.834 20.3227 16.7621C20.2508 16.7105 20.1937 16.6331 20.1439 16.5575C19.7899 16.0117 19.281 15.8403 18.6523 15.8882C18.0015 15.938 17.5055 16.2422 17.0962 16.7234C16.9229 16.9262 16.8824 17.2194 16.6482 17.3816C16.7017 17.0959 16.58 16.8543 16.4528 16.6146C16.3016 16.0984 16.6685 15.8606 16.9985 15.6061C17.2825 15.3849 17.6401 15.2743 17.9001 15.0143V15.0125Z" fill="#2B3948"/>
<path d="M25.6622 32.3031C26.1637 31.6523 26.8791 31.1932 27.2884 30.4575C27.3898 30.2732 27.6018 30.2252 27.7696 30.3156C27.9558 30.417 27.9429 30.6198 27.8434 30.7949C27.4451 31.49 26.892 32.0431 26.2356 32.4967C26.243 32.257 26.2356 32.056 25.924 32.3013C25.8687 32.3437 25.7507 32.3049 25.6622 32.3049V32.3031Z" fill="#164361"/>
<path d="M17.9001 15.0125C18.0476 15.2799 17.8669 15.4052 17.6678 15.4901C17.2437 15.6726 16.8805 15.9307 16.5966 16.2921C16.5265 16.3806 16.5007 16.5041 16.4546 16.6129C16.2223 16.5963 16.2684 16.4138 16.2684 16.2773C16.2721 15.7279 16.2868 15.1785 16.296 14.6272C16.8399 14.7157 17.3267 15.042 17.9001 15.0125Z" fill="#EEEDE8"/>
<path d="M29.0215 29.5632C28.3725 29.8324 27.8747 29.6315 27.7217 29.0249C27.6941 28.9179 27.6682 28.7741 27.7881 28.6875C27.9208 28.5898 28.0868 28.5584 28.2011 28.6783C28.4223 28.9124 28.6436 29.0949 28.9883 28.9714C28.9588 29.047 28.9404 29.13 28.8962 29.1945C28.7634 29.3826 28.8021 29.5024 29.0234 29.5632H29.0215Z" fill="#184867"/>
<path d="M22.9207 9.46299C23.2397 9.10899 23.2157 8.62409 23.2544 8.22401C23.3798 6.93524 23.8389 5.67783 23.6563 4.35957C23.6453 4.28397 23.6508 4.16229 23.767 4.1881C23.8444 4.20469 23.955 4.29688 23.9605 4.36325C23.9974 4.81312 24.226 5.2169 24.2094 5.68336C24.1818 6.51119 24.2021 7.33902 24.2002 8.16869C23.9476 8.24982 24.0361 8.46185 24.0343 8.62778C24.0269 9.60495 23.9827 10.584 24.0417 11.5575C24.0878 12.3244 23.8444 13.0472 23.8296 13.8013C23.8223 14.1276 23.4425 14.4447 23.1696 14.4318C22.7548 14.4115 22.3657 14.1036 22.3713 13.7349C22.3768 13.32 22.3307 12.9089 22.4911 12.483C22.622 12.1327 22.5353 11.7031 22.5464 11.3086C22.764 10.713 22.8764 10.0972 22.9188 9.46667L22.9207 9.46299Z" fill="#2B1916"/>
<path d="M20.7026 2.55102C20.8833 2.44777 21.0235 2.42196 21.0751 2.69115C21.088 2.75936 21.1875 2.81099 21.2484 2.86999C21.3221 3.09861 21.0714 3.2332 21.0824 3.44338C21.0954 3.66647 20.9866 3.75866 20.7635 3.75128C20.5035 3.74207 20.5293 3.53926 20.4888 3.37701C20.4906 3.08386 20.7875 2.8663 20.7008 2.54918L20.7026 2.55102Z" fill="#3D1C18"/>
<path d="M2.28933 23.6541C2.7687 23.4458 2.90513 23.4882 3.01391 23.8827C3.25913 24.7677 3.80118 25.225 4.70829 25.3042C4.9996 25.3301 5.13788 25.1715 5.23007 24.9097C5.36835 24.5207 5.47713 24.1077 5.54534 23.7186C5.64306 23.16 6.02655 22.9922 6.4082 22.7728C6.53911 22.6972 6.71611 22.6659 6.8212 22.8078C6.94104 22.9682 6.90785 23.1452 6.77142 23.3001C6.59442 23.5029 6.43586 23.7223 6.27546 23.9325C5.68547 24.6995 6.05237 25.638 6.52989 26.3294C6.66633 26.5266 6.87282 26.6778 7.04245 26.853C7.32453 27.1443 7.65456 27.4024 8.06755 27.3213C8.5248 27.2309 9.08897 27.1646 9.25122 26.6446C9.35816 26.3017 9.75271 26.3312 9.81724 26.0215C9.82646 25.8371 9.80803 25.6472 9.85228 25.472C9.89837 25.2932 10.0293 25.1162 10.2395 25.1586C10.422 25.1955 10.5621 25.3503 10.5566 25.5568C10.5437 25.9864 10.4367 26.4013 10.1657 26.7368C9.97212 26.9765 10.0625 27.1148 10.256 27.2604C10.9143 27.7546 11.6942 27.843 12.4353 27.6624C13.0161 27.5204 13.56 27.1517 13.5194 26.3828C13.5047 26.1063 13.6282 25.8389 13.9177 25.9108C14.1223 25.9606 14.2348 26.2574 14.2145 26.5082C14.1481 27.2862 13.4789 28.0625 12.7082 28.2616C12.592 28.2911 12.4611 28.2726 12.345 28.304C12.144 28.3593 11.9099 28.3943 11.7697 28.5252C11.7034 28.5879 11.8177 28.846 11.8509 29.0157C11.932 29.4489 11.7587 29.8509 11.6905 30.2657C11.602 30.3874 11.5245 30.5164 11.425 30.6271C11.307 30.758 11.2775 30.876 11.3955 31.0253C11.602 31.2816 11.7679 31.5766 12.0039 31.8034C12.6105 32.386 12.6068 33.9163 11.8103 34.4878C11.3217 34.84 10.7797 34.9451 10.2007 34.8861C10.0016 34.8658 9.98871 34.6759 10.0256 34.5321C10.0956 34.2666 10.2837 34.1596 10.5676 34.1559C11.79 34.1375 11.9744 33.3539 11.4747 32.3509C11.0083 31.4143 10.0993 30.9589 9.06132 30.8502C8.60776 30.8022 8.1413 30.8096 7.6859 30.8502C6.16852 30.9792 5.08073 30.3247 4.32111 29.0562C4.26027 28.9548 4.25105 28.8331 4.10908 28.8092C3.9284 28.1804 3.49697 27.6273 3.54122 26.9267C3.55044 26.7995 3.55597 26.6668 3.68687 26.628C3.85834 26.5764 3.98924 26.687 4.05377 26.8308C4.12752 26.9931 4.17361 27.1719 4.21418 27.3471C4.44095 28.315 5.06229 29.0157 5.77396 29.6517C6.12796 29.967 6.52989 30.1532 7.02032 30.1256C7.32638 30.1071 7.63428 30.1237 7.94034 30.109C8.70548 30.074 9.46878 30.0869 10.1823 30.3874C10.5529 30.5423 10.7465 30.4206 10.9364 30.1219C11.2037 29.6997 11.1798 29.2314 11.1005 28.7889C11.0341 28.422 10.7022 28.2394 10.3722 28.0477C9.9039 27.7767 9.53516 27.6384 8.94332 27.8375C7.74306 28.2413 6.64236 27.7877 5.95834 26.6815C5.65965 26.1985 5.33885 26.0546 4.79679 26.0362C3.42322 25.9901 2.33174 24.9171 2.28564 23.656L2.28933 23.6541Z" fill="#143753"/>
<path d="M8.53952 24.7622C8.36437 24.7585 8.2685 25.0462 8.06015 24.8968C7.90897 24.7899 7.81494 24.659 7.80019 24.4506C7.767 23.9897 7.95875 23.5749 8.07491 23.1564C8.15787 22.8595 8.22978 22.6346 7.96981 22.441C7.66007 22.2105 7.91266 22.0243 7.98825 21.8215C8.17078 21.7975 8.37912 21.7441 8.50634 21.9045C8.74971 22.2087 8.98386 22.1312 9.29729 22.0096C9.96656 21.7496 10.0127 21.7607 9.78035 21.1504C9.53882 20.5217 9.69738 19.9593 9.95919 19.4081C10.2431 18.8089 10.2671 18.6632 9.808 18.2392C9.5001 17.9552 9.12214 17.745 8.77368 17.5054C8.65015 17.4205 8.47868 17.3744 8.40493 17.2601C8.30721 17.1108 8.298 16.908 8.43074 16.7494C8.53584 16.6222 8.64461 16.7144 8.75339 16.7642C9.47245 17.1034 10.1767 17.4648 10.5879 18.1894C10.7557 18.4862 10.9345 18.4088 11.176 18.3018C11.8527 18.0032 12.5386 18.0142 13.2004 18.3424C13.3701 18.4254 13.6134 18.5563 13.4457 18.8384C13.3166 19.0559 13.088 19.1334 12.8962 19.0043C12.6105 18.8125 12.3118 18.842 12.0112 18.8439C11.1336 18.8439 10.5787 19.2993 10.398 20.1511C10.2431 20.872 10.61 21.7238 11.2811 22.0593C12.4058 22.6217 12.8925 23.809 12.7764 24.9448C12.7414 25.284 12.6344 25.6011 12.3708 25.8353C12.2915 25.9072 12.2233 26.051 12.0758 25.968C11.9357 25.8906 11.8269 25.7744 11.8601 25.6011C11.8822 25.485 11.9486 25.378 11.9836 25.2619C12.1127 24.8434 12.0924 24.4082 12.0407 23.9879C11.9117 22.9443 10.5123 22.1331 9.58676 22.6106C9.04655 22.889 8.60958 23.3536 8.55612 24.0321C8.53584 24.2755 8.5469 24.5226 8.54321 24.7678L8.53952 24.7622Z" fill="#143953"/>
<path d="M8.88437 15.75C8.37734 15.6634 7.89429 15.8109 7.44073 16.0948C6.77515 16.5115 6.44697 17.4758 6.73459 18.1874C6.9208 18.6484 7.50711 18.842 7.96435 18.5838C8.0676 18.5248 8.1395 18.4124 8.23538 18.3368C8.35522 18.2427 8.46769 18.3017 8.55619 18.3921C8.63915 18.4751 8.72765 18.5691 8.62256 18.7C8.2741 19.1388 8.41606 19.526 8.74609 19.8947C8.90465 20.0699 8.95812 20.2653 8.83643 20.481C8.77559 20.588 8.68525 20.6746 8.5525 20.6857C8.44556 20.6949 8.38841 20.623 8.35522 20.5345C8.12107 19.8763 7.61958 19.5887 6.98165 19.3398C6.12985 19.006 5.70579 17.7947 6.02107 16.9079C6.56865 15.3647 8.01229 14.8466 9.46514 15.1877C9.65136 15.2319 9.67348 15.4016 9.64951 15.5564C9.62554 15.7205 9.48358 15.8588 9.34714 15.8441C9.20702 15.8275 9.07427 15.7205 8.88068 15.75H8.88437Z" fill="#153B54"/>
<path d="M7.26187 21.4289C7.11622 21.7515 6.96503 21.888 6.5797 21.6557C6.26995 21.4676 5.99155 21.1874 5.53062 21.239C4.88532 21.3091 4.55345 21.4621 4.31192 22.0779C4.26951 22.1867 4.25845 22.3028 4.17548 22.3987C4.00955 22.596 3.78093 22.5867 3.65555 22.3526C3.48962 22.0392 3.49331 21.711 3.69427 21.4197C3.81227 21.2464 3.98742 21.1118 4.13861 20.9624C4.47785 20.6269 4.9185 20.3448 4.50182 19.7548C4.40042 19.6128 4.46863 19.3381 4.49076 19.1261C4.5221 18.8016 4.71938 18.6504 5.04388 18.6725C5.07153 19.1132 4.94247 19.5723 5.23009 19.9816C5.42184 20.2544 5.58409 20.4904 5.9768 20.5531C6.51332 20.6398 6.98531 20.9127 7.26003 21.4289H7.26187Z" fill="#163754"/>
<path d="M29.167 24.1686C28.9274 24.5503 28.6877 24.9301 28.448 25.3117C28.4093 25.3947 28.3429 25.4482 28.2562 25.4758C27.5501 25.7155 26.8956 26.1377 26.0972 26.0603C25.852 26.0363 25.7875 26.2871 25.6584 26.4567C25.2141 27.0319 24.7735 27.6182 24.0083 27.8284C23.5197 27.963 23.0385 27.8671 22.5536 27.88C21.995 27.9058 21.4584 27.987 21.0215 28.3889C20.6066 28.7687 20.5163 29.2296 20.7173 29.7256C20.9311 30.2566 21.3626 30.0317 21.7442 29.9671C22.8707 29.7754 24.0009 29.8159 25.1311 29.9155C25.9534 29.6205 26.4678 28.977 26.8513 28.2543C27.0707 27.8395 27.3123 27.3988 27.3436 26.9047C27.3584 26.6669 27.4837 26.5747 27.6958 26.5986C27.9576 26.6281 28.0922 26.842 27.9944 27.1259C27.6773 28.0423 27.3215 28.9365 26.6264 29.6555C25.6658 30.6493 24.5725 31.0236 23.1786 30.7175C22.3305 30.5313 21.5322 30.9627 20.7947 31.3905C20.3117 31.6707 19.9392 32.0302 19.7751 32.6073C19.5262 33.4868 19.8249 34.0325 20.7099 34.169C20.9164 34.2003 21.1376 34.1339 21.3165 34.3091C21.44 34.4289 21.4843 34.558 21.4345 34.7184C21.3902 34.8548 21.2796 34.8806 21.1505 34.8899C20.3983 34.9433 19.7438 34.6963 19.316 34.0878C18.8809 33.4684 18.9252 32.7604 19.2534 32.0948C19.399 31.7998 19.5944 31.5048 19.836 31.2891C20.1439 31.0144 20.2379 30.7452 19.954 30.452C19.7456 30.2382 19.906 29.8915 19.6295 29.7311C19.6239 29.6703 19.611 29.6076 19.6147 29.5486C19.6369 29.1946 19.8083 28.7263 19.6461 28.5198C19.4691 28.2967 18.9694 28.352 18.6339 28.2248C17.9001 27.9482 17.4262 27.4136 17.2455 26.6447C17.205 26.4714 17.1865 26.2815 17.2843 26.1082C17.3451 25.9994 17.417 25.8999 17.5534 25.8888C17.6936 25.8778 17.7894 25.9736 17.8429 26.0787C17.8945 26.182 17.9038 26.3092 17.924 26.4272C18.0531 27.1757 18.5048 27.6201 19.2368 27.7123C19.7641 27.7786 20.2766 27.703 20.756 27.4836C20.9754 27.3841 21.2298 27.255 21.3405 27.0651C21.4031 26.9582 21.1948 26.7037 21.134 26.5083C21.0455 26.2188 20.9699 25.9257 20.9127 25.6288C20.8721 25.426 20.9754 25.2564 21.1635 25.1882C21.4179 25.0942 21.4658 25.3357 21.5322 25.485C21.593 25.6196 21.5894 25.78 21.6207 25.9294C21.8641 27.0835 23.3022 27.8542 24.4803 26.8199C25.3432 26.064 25.6455 25.0665 25.3247 24.1262C25.1975 23.7538 24.9154 23.5307 24.6721 23.2597C24.543 23.1159 24.484 22.926 24.6573 22.7766C24.7827 22.6678 24.9486 22.701 25.0814 22.7914C25.7045 23.2173 25.9922 23.8368 26.0825 24.565C26.5932 25.4592 27.2846 24.7678 27.8967 24.7715C28.1991 24.6093 28.4406 24.4028 28.448 24.023C28.448 23.9935 28.4498 23.9621 28.4517 23.9326C28.4664 23.6948 28.5881 23.5233 28.8223 23.5049C29.038 23.4883 28.9771 23.8146 29.1744 23.8552C29.2685 23.964 29.2684 24.0691 29.1652 24.1723L29.167 24.1686Z" fill="#193954"/>
<path d="M18.6488 24.6147C18.6396 23.4329 19.1706 22.6088 20.1643 22.0556C21.0088 21.5873 21.3093 20.5917 20.8779 19.7086C20.4704 18.8752 19.5356 18.5231 18.6451 18.8697C18.6175 18.8807 18.588 18.8918 18.5622 18.9066C18.3446 19.0338 18.0957 19.1905 17.9611 18.8494C17.8449 18.5544 18.0975 18.4143 18.3243 18.3073C18.9069 18.0345 19.4932 18.0271 20.098 18.2631C20.4206 18.3885 20.6972 18.4659 20.9774 18.0345C21.3572 17.4482 21.9196 17.0057 22.6257 16.7826C22.8377 16.7162 22.976 16.7144 23.0811 16.8969C23.2083 17.12 23.0332 17.2435 22.8765 17.3302C22.3934 17.5994 21.9435 17.9054 21.5545 18.3037C21.2687 18.5968 21.1268 18.8734 21.3812 19.2753C21.785 19.9151 21.7831 20.6599 21.5582 21.3163C21.3941 21.7957 21.6393 21.8307 21.9011 21.9247C22.2809 22.0612 22.6773 22.3045 23.0406 21.8491C23.1254 21.744 23.3392 21.7459 23.4499 21.8897C23.5494 22.0188 23.5605 22.2197 23.4406 22.3082C23.0074 22.6309 23.1844 23.007 23.3429 23.3518C23.5476 23.798 23.5273 24.2441 23.4259 24.694C23.3927 24.8415 23.2526 24.954 23.0719 24.9134C22.9336 24.8821 22.8967 24.7548 22.8949 24.6313C22.8894 24.4469 22.917 24.2607 22.8986 24.08C22.788 22.9812 21.7942 22.1368 20.4907 22.6456C19.578 23.0033 18.9512 24.399 19.3937 25.249C19.6131 25.6693 19.5356 25.9846 19.3144 26.0086C18.9401 26.0491 18.9032 25.7117 18.776 25.4868C18.6193 25.2047 18.6894 24.8876 18.647 24.6147H18.6488Z" fill="#27384D"/>
<path d="M23.5862 15.7576C23.8498 15.6469 24.1006 15.4828 24.4103 15.5363C24.8823 15.8626 25.1441 16.3383 25.3156 16.8638C25.6843 17.9921 25.299 18.9251 24.2223 19.4081C23.7189 19.6349 23.3354 19.9391 23.1382 20.4517C23.057 20.6655 22.928 20.7522 22.7252 20.6766C22.5058 20.5973 22.515 20.3908 22.5537 20.212C22.585 20.0663 22.6422 19.9059 22.7399 19.8008C23.0718 19.4487 23.1916 19.1205 22.7842 18.7296C22.6864 18.6356 22.7178 18.4236 22.8745 18.3332C22.9759 18.2742 23.1105 18.2632 23.2193 18.3517C23.2912 18.4088 23.3465 18.4863 23.4221 18.536C24.0692 18.9767 24.6445 18.6983 24.7643 17.9147C24.9229 16.8878 24.4177 16.2388 23.588 15.7576H23.5862Z" fill="#283B4E"/>
<path d="M26.4293 18.4879C26.7612 18.4713 26.9382 18.6428 26.964 18.9599C26.9825 19.1701 26.9566 19.384 26.9695 19.596C26.9917 19.9758 26.5492 20.2542 26.6653 20.5842C26.7612 20.8553 27.2295 20.8313 27.4084 21.165C27.5319 21.3955 27.7255 21.5927 27.8324 21.8435C27.9098 22.0223 27.9283 22.1938 27.8121 22.3542C27.7421 22.4501 27.6499 22.5404 27.5171 22.5312C27.3678 22.5201 27.3254 22.4095 27.3235 22.2823C27.3217 22.1569 27.3143 22.0426 27.1705 21.9965C26.7465 21.1632 25.9795 20.9198 25.1406 21.3586C24.9562 21.4563 24.829 21.6591 24.5856 21.6554C24.4566 21.6554 24.3293 21.6352 24.2593 21.5282C24.1855 21.4139 24.2464 21.2977 24.3275 21.2C24.5893 20.8866 24.9193 20.6654 25.3028 20.5437C26.0919 20.2929 26.2228 20.1491 26.2634 19.3655C26.2782 19.065 26.197 18.7479 26.4275 18.4879H26.4293Z" fill="#284056"/>
<path d="M27.897 24.7678C27.4858 25.3135 26.8958 25.3338 26.2929 25.3153C26.0938 25.3098 26.0514 25.1807 26.0606 25.0111C26.0698 24.8618 26.0754 24.7106 26.0827 24.5613C26.9585 24.5502 27.1134 24.3677 27.1613 23.2854C27.2627 23.2983 27.3217 23.3628 27.3475 23.4532C27.4471 23.798 28.0426 23.5656 27.9984 23.9086C27.9615 24.1907 27.897 24.4764 27.897 24.7696V24.7678Z" fill="#4FB5D6"/>
<path d="M25.1293 29.9136C25.0703 30.1016 24.9154 30.1016 24.7606 30.0998C24.272 30.0998 23.7834 30.1109 23.2948 30.0924C22.5942 30.0666 21.8973 30.0685 21.2501 30.3856C20.8814 30.5663 20.6915 30.404 20.5182 30.1016C20.0904 29.3476 20.273 28.5437 20.9975 28.0643C21.1727 27.9482 21.3607 27.8486 21.5359 27.7306C21.9212 27.4707 22.2549 27.5389 22.5518 27.8781C22.5665 27.974 22.6108 28.0606 22.7085 28.0736C23.0127 28.1123 23.3225 27.9758 23.5732 28.3612C23.6986 28.5548 24.1392 28.5455 24.4029 28.3298C24.7053 28.0828 24.932 27.7509 25.3174 27.596C25.4556 27.5407 25.4944 27.3766 25.5054 27.207C25.5257 26.9249 25.7156 26.8069 25.9959 26.7811C26.6744 26.7166 26.7389 26.7885 26.608 27.5002C26.5803 27.6477 26.6098 27.8062 26.6006 27.9592C26.5711 28.481 26.5693 28.481 25.9811 28.6285C25.3672 28.7834 24.9892 29.3513 25.1256 29.9154L25.1293 29.9136Z" fill="#4FB5D6"/>
<path d="M28.2565 25.4739C28.2749 25.3651 28.3431 25.3171 28.4482 25.3098C28.9755 25.2434 29.4365 25.3983 29.8955 25.6619C30.1131 25.7873 30.1334 25.9256 30.0983 26.0897C30.0191 26.4603 29.8937 26.8198 29.8034 27.1867C29.6559 27.7859 29.123 27.8818 28.6639 28.0495C28.4777 28.1178 28.3818 27.8762 28.4593 27.7582C28.852 27.1627 28.5293 26.6538 28.238 26.1966C28.0463 25.8942 28.1588 25.7099 28.2565 25.4739Z" fill="#4FB5D6"/>
<path d="M27.6812 19.7915C27.9301 19.786 28.4758 20.4202 28.4408 20.6839C28.4057 20.9549 28.1476 20.942 28.0352 20.8683C27.7899 20.7042 27.5816 20.4756 27.3843 20.2506C27.2848 20.1382 27.5189 19.7952 27.6812 19.7915Z" fill="#4FB5D6"/>
<path d="M29.167 24.1684C29.1707 24.0633 29.1725 23.9564 29.1762 23.8513C29.1836 23.8218 29.1836 23.7867 29.2002 23.7665C29.4362 23.4862 29.5542 23.7646 29.6832 23.8845C29.7699 23.9637 29.9543 24.0264 29.8178 24.2237C29.6777 24.4302 29.6464 24.8008 29.309 24.7215C29.0693 24.6644 29.2278 24.3546 29.167 24.1666V24.1684Z" fill="#4FB5D6"/>
<path d="M10.7833 10.8107C11.3364 9.62332 11.884 8.43412 12.4408 7.24861C13.4788 5.0343 14.5205 2.82368 15.5622 0.611214C15.5844 0.565121 15.612 0.520872 15.6378 0.476623C15.7079 0.471092 15.7577 0.507966 15.7927 0.561434C16.1633 1.13299 16.7514 1.43351 17.3211 1.73957C18.3223 2.27978 19.3861 2.68724 20.4647 3.04677C21.2575 3.31042 22.0687 3.51507 22.8763 3.72895C23.4165 3.87091 23.9604 3.98338 24.508 4.08663C24.6002 4.10322 24.6905 4.12535 24.7642 4.18803C24.8786 4.32816 24.8343 4.48487 24.8011 4.63237C24.6149 5.46573 24.4305 6.30094 24.1982 7.12508C23.7115 8.8508 23.1621 10.5581 22.7048 12.2912C22.6624 12.4516 22.5997 12.6028 22.5389 12.7576C22.4117 12.9918 22.408 13.2555 22.3545 13.5062C22.2752 13.8749 22.2052 13.9487 21.8235 13.9893C21.2981 14.0464 20.7708 14.0648 20.2453 14.0114C18.8662 13.8694 17.5 13.6334 16.1688 13.2591C14.4394 12.7742 12.7321 12.2137 11.1152 11.4117C10.8239 11.2679 10.7003 11.1204 10.7852 10.8125L10.7833 10.8107Z" fill="#50B7D7"/>
<path d="M10.7833 10.8107C10.7004 11.3362 11.1982 11.3177 11.4563 11.4652C11.9062 11.7215 12.4077 11.8911 12.8944 12.0792C13.772 12.4203 14.6718 12.6931 15.5752 12.9642C16.6814 13.296 17.7987 13.5689 18.9363 13.7404C19.8987 13.886 20.8667 14.0206 21.8475 13.9008C22.0927 13.8713 22.2292 13.7846 22.2697 13.5154C22.3084 13.2592 22.2845 12.9771 22.4652 12.754C22.5574 12.9033 22.4965 13.0563 22.4725 13.2057C22.3988 13.6629 22.2826 14.1146 22.2863 14.5829C22.29 14.9849 22.3804 15.0918 22.7804 15.1342C22.8523 15.1416 22.9242 15.1527 22.9943 15.1693C23.3796 15.2596 23.5032 15.1987 23.6562 14.8282C23.7705 14.5516 23.8369 14.2548 23.8959 13.9653C24.0876 13.0268 24.2941 12.0902 24.39 11.1333C24.4306 10.7369 24.4601 10.3313 24.6408 9.96258C24.8122 9.92755 24.7846 10.0585 24.7772 10.1451C24.7661 10.2908 24.7016 10.4217 24.661 10.5268C26.0586 7.16566 26.7795 5.08779 26.9454 4.2323C26.3941 4.36689 25.8447 4.35214 25.2953 4.33923C25.2086 4.33002 25.1681 4.27286 25.1644 4.19542C25.1404 3.72159 24.9855 3.27725 24.8841 2.82001C24.9468 2.76838 25.5626 2.47339 25.6124 2.47339C26.0844 2.6891 26.5177 2.96382 26.8938 3.3215C27.0634 3.4819 27.2109 3.65706 27.1685 3.93915C26.5656 7.88655 25.9701 11.8358 25.3727 15.7832C25.3653 15.833 25.3487 15.8828 25.3377 15.9326C25.157 16.3308 24.8085 16.4949 24.414 16.5889C23.7134 16.7549 23.0035 16.7678 22.2882 16.7198C21.7719 16.6848 21.2575 16.6239 20.7542 16.5281C20.2085 16.4248 19.6572 16.3326 19.1188 16.187C17.8927 15.857 16.6814 15.4716 15.5106 14.9738C14.2256 14.4281 12.9737 13.816 11.8675 12.9476C11.5006 12.6599 11.165 12.341 10.8958 11.9538C10.7741 11.7786 10.7409 11.5722 10.6377 11.3952C10.6524 11.1905 10.6856 10.9914 10.7797 10.8052L10.7833 10.8107Z" fill="#195282"/>
<path d="M24.6869 9.95146C24.4435 11.2162 24.3347 12.505 24.0397 13.7606C23.9346 14.2068 23.8775 14.6732 23.6415 15.0844C23.5014 15.3277 23.3299 15.4236 23.0552 15.2982C22.9556 15.2522 22.8376 15.2356 22.7252 15.23C22.3048 15.2042 22.1702 15.0457 22.1831 14.6216C22.2015 13.9892 22.3693 13.3808 22.4652 12.7594C22.9114 11.1001 23.4221 9.45734 23.9051 7.80905C24.2259 6.71204 24.5228 5.60765 24.7164 4.47929C24.7311 4.39079 24.7717 4.29861 24.7237 4.20827C24.6297 4.07552 24.6979 3.93171 24.6942 3.79343C24.6832 3.47815 24.6537 3.16472 24.5541 2.86235C24.3845 2.41801 24.1485 2.01793 23.7982 1.68974C23.3741 1.34128 22.9114 1.07578 22.3638 0.976223C22.2366 0.952255 22.1001 0.928287 22.0172 0.804757C22.0135 0.790008 22.0098 0.775258 22.0061 0.758664C22.7602 0.729165 23.4018 1.01679 23.9734 1.47956C24.1559 1.62706 24.3163 1.80221 24.4878 1.96446C24.7293 2.19308 24.8934 2.46226 24.9339 2.79966C25.1091 3.29009 25.2216 3.79527 25.264 4.3152C25.3598 4.42951 25.3506 4.56595 25.3432 4.6987C25.2806 5.78096 25.1957 6.85954 25.0261 7.93258C24.9597 8.35848 24.9192 8.79176 24.8841 9.22319C24.8639 9.47578 24.8805 9.74496 24.6869 9.95146Z" fill="#020101"/>
<path d="M23.8518 1.65116C24.1892 1.98118 24.4676 2.34993 24.5949 2.81455C24.5156 3.00814 24.3386 2.96389 24.1966 2.96204C23.4923 2.95467 22.8009 2.84036 22.1151 2.68733C21.4329 2.5343 20.7507 2.39049 20.0722 2.21534C19.3089 2.0199 18.5899 1.70831 17.8395 1.48891C17.2827 1.32666 16.7701 1.05932 16.2391 0.838078C16.0068 0.742204 15.7026 0.666612 15.7321 0.303399C15.8814 0.0747774 16.1303 0.0637151 16.359 0.0342156C16.9047 -0.0340021 17.4523 0.00840347 17.9943 0.0858397C19.1928 0.255462 20.3727 0.504364 21.5269 0.869421C21.5804 1.03351 21.4937 1.16995 21.4366 1.31191C21.3702 1.47416 21.2835 1.62719 21.2301 1.79497C21.1766 1.9609 21.2227 2.0789 21.4034 2.12499C21.5712 2.1674 21.715 2.15818 21.7648 1.95169C21.809 1.771 21.833 1.58663 21.8367 1.40041C21.8403 1.24738 21.8348 1.08698 21.9712 0.972669C22.6442 1.07223 23.2674 1.31191 23.8555 1.64747L23.8518 1.65116Z" fill="#50B7D7"/>
<path d="M15.73 0.303467C15.7872 0.603993 16.0656 0.68143 16.2813 0.766241C16.8123 0.972738 17.3175 1.24561 17.8706 1.40232C18.6173 1.61435 19.3142 1.97941 20.0904 2.114C20.3891 2.16562 20.6693 2.34078 20.968 2.38318C22.0798 2.5399 23.162 2.90127 24.3015 2.87914C24.4066 2.8773 24.5061 2.87361 24.5965 2.81461C24.7993 3.26448 24.8177 3.73094 24.7274 4.20847C23.4368 4.00013 22.1793 3.65904 20.9293 3.27555C19.7512 2.91418 18.6062 2.47721 17.5 1.92594C16.9284 1.64016 16.4103 1.29723 15.9144 0.90452C15.7614 0.782834 15.7982 0.57265 15.6378 0.47862C15.6231 0.395653 15.671 0.345872 15.7319 0.303467H15.73Z" fill="#195282"/>
<path d="M10.6414 11.4007L10.7151 11.3601C11.0064 12.3004 11.7734 12.8166 12.5257 13.3163C14.1334 14.382 15.9015 15.1047 17.736 15.691C18.6818 15.9934 19.6387 16.2533 20.6104 16.4193C21.8457 16.6313 23.0976 16.8101 24.3568 16.5207C24.7514 16.4303 25.0851 16.2533 25.3395 15.9381C25.2584 16.3806 24.9376 16.5889 24.5523 16.7198C23.8756 16.9484 23.1713 16.9706 22.4744 16.9116C18.9326 16.6147 15.6471 15.5214 12.6123 13.6721C12.0223 13.3126 11.4747 12.8904 11.0341 12.3483C10.811 12.0736 10.6193 11.7805 10.6395 11.4007H10.6414Z" fill="#140B0B"/>
<path d="M21.9877 1.02064C21.9398 1.34698 21.8826 1.67147 21.8476 1.99966C21.8089 2.34812 21.584 2.27068 21.3682 2.23012C21.1286 2.18403 21.0216 2.05128 21.123 1.80975C21.2539 1.49632 21.3922 1.18473 21.5268 0.873143C21.6374 0.620553 21.8034 0.598428 22.0099 0.760676L22.008 0.751457C22.0541 0.845487 22.0523 0.935829 21.9896 1.02248L21.9877 1.02064Z" fill="#130708"/>
<path d="M24.9358 2.7981C24.7883 2.51969 24.639 2.24129 24.4896 1.96289C24.8897 2.07905 25.2474 2.28739 25.6143 2.47729C25.406 2.62294 25.2271 2.82944 24.934 2.7981H24.9358Z" fill="#195282"/>
<path d="M24.6869 9.9514C24.9174 8.07633 25.216 6.2068 25.2658 4.3133C25.3617 4.23771 25.4705 4.23218 25.5866 4.24324C26.0236 4.28564 26.4606 4.28564 26.8809 4.1363C27.0634 4.07177 27.069 4.14552 27.0395 4.29117C26.9178 4.87563 26.7113 5.43428 26.5196 5.99662C26.2522 6.7802 25.983 7.56378 25.6622 8.32524C25.3377 9.09407 25.0685 9.89055 24.6445 10.6446C24.6095 10.3939 24.7699 10.1763 24.6869 9.94771V9.9514Z" fill="#50B7D7"/>
<path d="M91.3183 20.0317C91.1336 19.1167 90.5292 18.42 89.6227 18.0549C89.9668 17.2532 90.9867 16.8923 91.0665 15.9353C91.1336 15.1715 91.0707 14.3992 91.1378 13.6353C91.3393 11.3353 89.6856 9.95869 87.4234 9.82019C86.1727 9.74464 84.9135 9.82859 83.6628 9.78662C82.9577 9.76143 82.6765 9.97548 82.6849 10.7226C82.7226 13.2996 82.6975 15.8808 82.6975 18.4578H82.7059C82.7059 21.039 82.7101 23.616 82.6975 26.1972C82.6975 26.7596 82.8066 27.1164 83.4907 27.0954C85.0898 27.0534 86.6973 27.0954 88.2964 27.0408C89.5975 26.9947 90.5082 26.3105 91.0413 25.1312C91.7967 23.4649 91.6582 21.7357 91.3183 20.0317ZM86.0048 12.351C86.584 12.2335 87.2807 12.1118 87.7843 12.607C88.607 13.4129 88.6573 14.4496 88.4223 15.4863C88.2166 16.3886 87.5241 16.8083 86.6301 16.9091C86.009 16.9804 85.5263 16.8713 85.5809 16.0655C85.6144 15.587 85.5893 15.1001 85.5893 14.6133H85.5935C85.5935 14.2691 85.5683 13.9207 85.5977 13.5766C85.6438 13.1359 85.3668 12.4811 86.0048 12.351ZM88.6238 22.9781C88.565 24.0987 88.3048 24.4009 87.2303 24.7198C85.946 25.0976 85.6354 24.8793 85.5977 23.5489C85.5809 23.0662 85.5935 22.5793 85.5935 22.0967H85.5893C85.5893 21.6812 85.5515 21.2656 85.5977 20.8543C85.669 20.2667 85.2115 19.4063 86.4287 19.3937C88.0236 19.3811 88.5104 19.6456 88.6112 20.9047C88.6699 21.593 88.6573 22.2897 88.6238 22.9781Z" fill="white"/>
<path d="M139.341 16.7032C139.488 15.2259 138.812 13.8702 138.875 12.4054C138.896 11.9353 138.485 11.3897 138.154 10.9742C137.058 9.60596 134.678 9.13169 132.702 9.81581C130.838 10.4664 130.141 11.4863 130.104 13.7401C130.078 15.3434 130.099 16.9467 130.099 18.5499H130.104C130.104 20.2204 130.129 21.895 130.091 23.5697C130.07 24.6022 130.506 25.3702 131.115 26.1719C132.043 27.389 135.522 28.0018 137.037 26.9022C137.797 26.3523 138.812 25.7773 138.863 24.7532C138.938 23.3094 139.471 21.9328 139.337 20.4596C139.228 19.2173 139.215 17.9456 139.341 16.7032ZM136.235 23.6116C135.757 24.6987 135.279 25.0806 134.406 24.9043C133.637 24.7491 133.05 24.023 133.037 23.0954C133.008 21.4879 133.029 19.8846 133.029 18.2771H133.033C133.033 16.7452 133.054 15.2091 133.02 13.6729C133.004 13.0266 133.251 12.5733 133.81 12.3425C134.481 12.0613 135.556 12.3593 135.87 12.9007C136.214 13.4967 136.408 14.1262 136.399 14.8523L136.374 22.3903C136.374 22.7974 136.416 23.1961 136.235 23.6116Z" fill="#59B3D3"/>
<path d="M102.457 22.7386C102.336 19.893 102.449 17.0306 102.428 14.1766C102.411 11.4862 101.253 9.9543 98.617 9.63533C95.4062 9.2408 93.4462 11.0623 93.5427 13.6058C93.6015 15.1335 93.5553 16.6696 93.5553 18.2016H93.5637C93.5637 20.0105 93.5385 21.8195 93.5721 23.6284C93.6015 25.1478 94.336 26.3271 95.6958 26.9483C98.5666 28.262 102.642 27.0322 102.457 22.7386ZM99.5236 23.4311C99.49 24.4552 98.4869 25.1226 97.488 24.8749C96.9801 24.7448 96.615 24.4426 96.5226 23.9096C96.4639 23.5697 96.4597 23.2171 96.4597 22.8687C96.4513 19.9769 96.4513 17.081 96.4513 14.185C96.4513 13.9751 96.4471 13.7653 96.4723 13.5596C96.5772 12.7034 97.1606 12.1074 97.9203 12.0696C98.6925 12.0361 99.4606 12.7328 99.5236 13.6226C99.5823 14.4536 99.5487 15.293 99.5487 16.1282C99.5529 16.6151 99.5487 17.1019 99.5487 17.5888V18.6297H99.5362C99.5362 20.233 99.5781 21.8321 99.5236 23.4311Z" fill="white"/>
<path d="M70.5344 13.5054C70.4966 11.7384 69.5019 10.6388 67.7433 10.0764C65.9763 9.50975 64.159 9.90428 62.3668 9.81614C61.7834 9.78676 61.7541 10.2317 61.7582 10.6723C61.7624 13.178 61.7582 15.6879 61.7582 18.1935H61.7708C61.7708 20.8419 61.7918 23.486 61.7582 26.1344C61.7499 26.8647 62.0311 27.1081 62.732 27.0913C64.0541 27.0578 65.3803 27.0242 66.7024 27.0871C69.1157 27.2047 70.5344 25.1355 70.5553 23.3266C70.5889 20.0528 70.6057 16.7791 70.5344 13.5054ZM67.928 22.5207C67.8986 23.868 67.3572 24.4472 66.3205 24.5647C64.8221 24.7326 64.6794 24.6109 64.671 23.0705C64.6626 21.5344 64.671 19.9983 64.671 18.4663C64.671 16.7204 64.7004 14.9744 64.6626 13.2326C64.6458 12.4687 64.9858 12.3092 65.6657 12.3092C67.2145 12.3176 67.8818 12.8129 67.9196 14.3574C67.9867 17.0771 67.9825 19.801 67.928 22.5207Z" fill="white"/>
<path d="M113.353 17.2825C113.353 19.2341 113.374 21.1858 113.349 23.1374C113.319 25.3241 112.53 26.4699 110.692 27.091C108.497 27.8297 106.734 27.3597 105.475 25.727C104.703 24.7239 104.682 23.4858 104.648 22.3609C104.539 18.6003 104.606 14.8314 104.602 11.0666C104.602 10.5629 104.606 10.0005 105.185 9.8704C105.848 9.71931 106.583 9.63956 107.221 9.93756C107.666 10.1474 107.464 10.6846 107.464 11.075C107.481 14.7012 107.481 18.3275 107.494 21.9538C107.494 22.6421 107.431 23.3221 107.783 23.9894C108.073 24.5434 108.417 24.8666 109.051 24.8834C109.764 24.9044 110.184 24.5938 110.495 23.9348C110.784 23.3263 110.746 22.7177 110.746 22.1007C110.751 18.4744 110.738 14.8481 110.759 11.2219C110.759 10.7728 110.486 10.1348 111.049 9.90817C111.682 9.65215 112.421 9.69832 113.084 9.87879C113.475 9.98372 113.357 10.458 113.361 10.7938C113.365 12.9553 113.361 15.1168 113.361 17.2783H113.353V17.2825Z" fill="white"/>
<path d="M123.862 27.4353C121.298 27.4395 119.686 25.9076 119.623 23.4271C119.607 22.806 119.653 22.2981 120.475 22.3779C120.752 22.403 121.088 22.4828 121.302 22.3653C122.305 21.8238 122.473 22.3904 122.545 23.2047C122.582 23.6496 122.322 24.2078 122.948 24.4764C123.497 24.7114 123.993 25.1983 124.66 24.6904C125.306 24.1994 125.722 23.3893 125.445 22.701C124.87 21.2698 124.064 19.889 122.717 19.1377C120.815 18.08 120.224 16.2585 119.674 14.4579C119.141 12.7078 120.761 10.2147 122.65 9.55995C124.077 9.06469 126.528 9.57673 127.527 11.3269C127.783 11.7718 128.055 12.2545 128.039 12.8673C127.988 14.6552 128.093 14.3992 126.431 14.4286C125.915 14.437 125.42 14.437 125.483 13.7025C125.508 13.3877 125.298 13.1862 125.109 12.9848C124.677 12.5147 124.236 12.032 123.506 12.4475C122.717 12.8966 122.402 13.5891 122.712 14.3404C123.304 15.7674 124.236 16.8797 125.508 17.8198C127.145 19.0328 128.206 20.7074 128.404 22.806C128.647 25.4039 126.561 27.6116 123.858 27.4353H123.862Z" fill="#59B3D4"/>
<path d="M153.473 27.0325C153.263 27.0325 153.053 27.0325 152.848 27.0325C151.643 27.0115 151.677 27.0031 151.484 25.8573C151.202 24.1869 150.862 22.529 150.539 20.8628C150.308 19.6666 150.044 18.4746 149.83 17.2785C149.423 15.0078 149.053 12.733 148.642 10.4624C148.554 9.97972 148.764 9.83703 149.171 9.82444C149.591 9.80765 150.01 9.84542 150.426 9.80344C151.207 9.7279 151.425 10.0091 151.555 10.8317C151.97 13.5053 152.562 16.1494 153.07 18.8062C153.146 19.2091 153.104 19.6372 153.2 20.0317C153.276 20.3465 152.885 20.9551 153.507 20.9215C153.909 20.9005 153.972 20.3549 154.023 19.9058C154.3 17.5471 154.631 15.1967 155.215 12.8883C155.429 12.0363 155.072 11.0878 155.672 10.2819C155.995 9.84962 157.683 9.59359 158.06 9.97133C158.3 10.2064 158.178 10.4918 158.203 10.7562C158.3 11.7341 157.855 12.6239 157.716 13.5682C157.322 16.3089 156.583 18.9993 156.159 21.74C155.941 23.1502 155.689 24.5478 155.395 25.9412C155.227 26.7471 154.963 27.1794 154.09 27.0367C153.884 27.0031 153.674 27.0325 153.465 27.0325H153.473Z" fill="#5BB3D2"/>
<path d="M52.8562 14.4621C52.256 14.525 51.6852 14.588 51.597 13.4925C51.5089 12.3803 50.8751 12.0823 49.8552 12.2796C49.0704 12.4307 48.5583 13.3457 48.8563 14.2438C49.1207 15.0287 49.4607 15.8051 50.0987 16.3927C50.8164 17.0517 51.5131 17.7274 52.2602 18.357C54.4301 20.1869 55.047 22.9612 54.0229 25.2864C53.2213 27.1037 50.6149 27.813 48.8144 27.2758C46.7956 26.6756 45.7841 25.001 46.1114 22.9528C46.1786 22.5247 46.4094 22.3736 46.7998 22.3652C47.081 22.361 47.358 22.3694 47.6392 22.3484C48.2855 22.2938 48.6339 22.4491 48.7094 23.2256C48.827 24.4092 49.4859 24.9842 50.3211 24.8792C51.2109 24.7659 51.8153 23.7292 51.6096 22.6086C51.4669 21.8364 51.064 21.19 50.5016 20.6444C49.5992 19.7714 48.7178 18.869 47.7861 18.0296C46.0779 16.4935 45.889 14.5208 46.2164 12.4559C46.4976 10.6973 48.1176 9.57246 50.2204 9.47593C52.0083 9.39619 53.7166 10.5924 54.174 12.2544C54.2286 12.4559 54.195 12.6825 54.2622 12.8714C54.8708 14.5712 54.3377 14.4663 52.8562 14.4579V14.4621Z" fill="white"/>
<path d="M159.911 18.4242C159.911 15.8388 159.924 13.2534 159.903 10.6638C159.899 10.0468 160.096 9.79082 160.734 9.79502C162.761 9.816 164.788 9.84119 166.815 9.78663C167.638 9.76564 167.995 10.0091 167.865 10.8485C167.835 11.0541 167.839 11.2682 167.865 11.4781C167.923 12.0992 167.667 12.3469 167.034 12.3301C165.917 12.3007 164.797 12.351 163.68 12.3217C163.046 12.3049 162.795 12.5609 162.845 13.1779C162.87 13.4549 162.841 13.7361 162.849 14.0173C162.879 14.9155 162.597 16.0319 163.03 16.6531C163.512 17.3456 164.708 16.8713 165.59 16.9343C166.627 17.0098 166.631 16.9846 166.631 18.2102C166.631 19.4189 166.631 19.3979 165.581 19.4693C164.7 19.5323 163.55 19.0706 163.017 19.7589C162.606 20.2919 162.858 21.358 162.853 22.1848C162.845 24.5058 162.853 24.5058 165.145 24.5058C165.565 24.5058 165.984 24.5016 166.404 24.5058C167.785 24.5226 168.268 25.2193 167.86 26.6002C167.772 26.9065 167.558 27.0241 167.252 27.0241C165.015 27.0241 162.778 27.0241 160.541 27.0241C159.966 27.0241 159.907 26.6421 159.907 26.1846C159.915 23.9476 159.911 21.7105 159.911 19.4735C159.911 19.1251 159.911 18.7726 159.911 18.4242Z" fill="#5BB4D2"/>
<path d="M141.432 18.3444C141.432 15.9059 141.423 13.4674 141.436 11.0289C141.444 9.82017 141.465 9.82017 142.72 9.80338C142.997 9.80338 143.278 9.82017 143.555 9.80338C144.206 9.75721 144.382 10.0846 144.369 10.6806C144.34 11.7928 144.365 12.9092 144.365 14.0256C144.365 17.1609 144.386 20.2961 144.353 23.4313C144.344 24.2036 144.495 24.5981 145.381 24.5268C146.279 24.4512 147.19 24.51 148.096 24.51C148.436 24.51 148.902 24.4554 148.94 24.8751C148.999 25.5425 149.196 26.2685 148.772 26.8771C148.663 27.0324 148.273 27.024 148.008 27.0282C146.128 27.0408 144.248 27.0114 142.363 27.0492C141.633 27.066 141.411 26.7932 141.419 26.0839C141.453 23.5069 141.432 20.9298 141.432 18.3528V18.3444Z" fill="#5DB4D3"/>
<path d="M75.915 18.3821C75.915 20.9549 75.894 23.5319 75.9275 26.1047C75.9359 26.8224 75.6925 27.1288 74.9748 27.0827C74.5593 27.0575 74.1396 27.0617 73.7241 27.0827C73.1659 27.1079 72.998 26.8099 73.0232 26.3146C73.0316 26.1761 73.0232 26.0376 73.0232 25.8991C73.0232 20.9591 73.019 16.0192 73.0232 11.0834C73.0232 9.81166 73.0483 9.81166 74.2403 9.79907C74.5173 9.79907 74.7985 9.81585 75.0755 9.80326C75.6841 9.77388 75.9275 10.0341 75.9192 10.6637C75.894 12.8881 75.9108 15.1168 75.915 17.3412C75.915 17.6896 75.915 18.0379 75.915 18.3863V18.3821Z" fill="white"/>
<path d="M59.2566 18.4073C59.2566 20.9885 59.2356 23.5739 59.2692 26.1551C59.2776 26.8938 58.988 27.1582 58.2912 27.0868C58.0856 27.0659 57.8715 27.0617 57.6659 27.0868C56.8349 27.2002 56.5914 26.8392 56.5998 26.0208C56.6376 21.9034 56.6208 17.7861 56.6208 13.6646C56.6208 12.6195 56.6334 11.5702 56.6124 10.5251C56.604 9.98792 56.8474 9.77387 57.3595 9.79486C57.7078 9.80745 58.0604 9.81584 58.4046 9.79486C59.0299 9.75708 59.2566 10.0383 59.2524 10.6553C59.2314 12.6782 59.2524 14.7054 59.2524 16.7284C59.2524 17.2866 59.2524 17.8449 59.2524 18.4031L59.2566 18.4073Z" fill="white"/>
</svg>
